<svg width="111" height="86" viewBox="0 0 111 86" fill="none" xmlns="http://www.w3.org/2000/svg">
    <g clip-path="url(#clip0_1_932)">
        <rect width="111" height="86" rx="8" fill="url(#paint0_linear_1_932)" />
        <path
            d="M-13.7747 7.46923L-8.28375 8.94051C-1.86326 6.94257 11.864 10.6208 22.8459 13.5634C36.5732 17.2416 46.6254 23.6534 58.4936 34.2701C60.1387 36.052 61.7537 37.9468 63.3818 39.8569C70.7815 48.5389 78.4526 57.539 90.4662 57.7103C101.448 60.6529 117.964 53.9234 125.314 48.4563L131.735 46.4583L121.509 84.6198L116.018 83.1485L85.8183 75.0565L50.1274 65.4931L11.6909 55.1941L-18.5091 47.102L-24 45.6307L-13.7747 7.46923Z"
            fill="url(#paint1_linear_1_932)" />
        <path
            d="M-13.7747 7.46923L-8.28375 8.94051C-1.86326 6.94257 11.864 10.6208 22.8459 13.5634C36.5732 17.2416 46.6254 23.6534 58.4936 34.2701C60.1387 36.052 61.7537 37.9468 63.3818 39.8569C70.7815 48.5389 78.4526 57.539 90.4662 57.7103C101.448 60.6529 117.964 53.9234 125.314 48.4563L131.735 46.4583L121.509 84.6198L116.018 83.1485L85.8183 75.0565L50.1274 65.4931L11.6909 55.1941L-18.5091 47.102L-24 45.6307L-13.7747 7.46923Z"
            stroke="#BFDBF7" />
        <path
            d="M-17.7637 30.0615L-12.1342 30.8513C-6.00574 28.0843 8.06798 30.0587 19.327 31.6383C33.4007 33.6127 44.1607 38.749 57.2364 47.837C59.0869 49.4047 60.9211 51.0881 62.7703 52.7851C71.1748 60.4985 79.8875 68.4946 91.8321 67.1976C103.091 68.7771 118.662 60.0812 125.289 53.7574L131.418 50.9904L125.929 90.1149L120.299 89.3252L89.3372 84.9814L52.7455 79.848L13.3391 74.3196L-17.623 69.9758L-23.2525 69.1861L-17.7637 30.0615Z"
            fill="url(#paint2_linear_1_932)" />
        <path
            d="M-17.7637 30.0615L-12.1342 30.8513C-6.00574 28.0843 8.06798 30.0587 19.327 31.6383C33.4007 33.6127 44.1607 38.749 57.2364 47.837C59.0869 49.4047 60.9211 51.0881 62.7703 52.7851C71.1748 60.4985 79.8875 68.4946 91.8321 67.1976C103.091 68.7771 118.662 60.0812 125.289 53.7574L131.418 50.9904L125.929 90.1149L120.299 89.3252L89.3372 84.9814L52.7455 79.848L13.3391 74.3196L-17.623 69.9758L-23.2525 69.1861L-17.7637 30.0615Z"
            stroke="#BFDBF7" />
        <path
            d="M-22.1491 64.1915L-16.4814 63.7534C-11.0906 59.7343 3.07871 58.639 14.4141 57.7627C28.5834 56.6674 40.1956 59.372 54.9185 65.4385C57.0626 66.5721 59.2157 67.8221 61.3862 69.0822C71.2517 74.8098 81.4788 80.7473 92.8659 76.9143C104.201 76.0381 117.54 64.2 122.654 56.6L128.045 52.5809L131.09 91.9711L125.422 92.4092L94.25 94.819L57.4099 97.6668L17.736 100.734L-13.4364 103.144L-19.1041 103.582L-22.1491 64.1915Z"
            fill="url(#paint3_linear_1_932)" />
        <path
            d="M-22.1491 64.1915L-16.4814 63.7534C-11.0906 59.7343 3.07871 58.639 14.4141 57.7627C28.5834 56.6674 40.1956 59.372 54.9185 65.4385C57.0626 66.5721 59.2157 67.8221 61.3862 69.0822C71.2517 74.8098 81.4788 80.7473 92.8659 76.9143C104.201 76.0381 117.54 64.2 122.654 56.6L128.045 52.5809L131.09 91.9711L125.422 92.4092L94.25 94.819L57.4099 97.6668L17.736 100.734L-13.4364 103.144L-19.1041 103.582L-22.1491 64.1915Z"
            stroke="#BFDBF7" />
    </g>
    <rect x="0.5" y="0.5" width="110" height="85" rx="7.5" stroke="#BFDBF7" stroke-opacity="0.2" />
    <defs>
        <linearGradient id="paint0_linear_1_932" x1="55.5" y1="0" x2="55.5" y2="86"
            gradientUnits="userSpaceOnUse">
            <stop stop-color="#205873" />
            <stop offset="1" stop-color="#012D46" />
        </linearGradient>
        <linearGradient id="paint1_linear_1_932" x1="83.0809" y1="21.185" x2="69.7964" y2="70.7634"
            gradientUnits="userSpaceOnUse">
            <stop stop-color="#184D6C" />
            <stop offset="1" stop-color="#051923" />
        </linearGradient>
        <linearGradient id="paint2_linear_1_932" x1="80.0419" y1="31.8474" x2="72.911" y2="82.677"
            gradientUnits="userSpaceOnUse">
            <stop stop-color="#184D6C" />
            <stop offset="1" stop-color="#051923" />
        </linearGradient>
        <linearGradient id="paint3_linear_1_932" x1="73.7562" y1="44.9227" x2="77.7122" y2="96.0974"
            gradientUnits="userSpaceOnUse">
            <stop stop-color="#184D6C" />
            <stop offset="1" stop-color="#051923" />
        </linearGradient>
        <clipPath id="clip0_1_932">
            <rect width="111" height="86" rx="8" fill="white" />
        </clipPath>
    </defs>
</svg>
    