<svg width="111" height="86" viewBox="0 0 111 86" fill="none" xmlns="http://www.w3.org/2000/svg">
    <g clip-path="url(#clip0_1_953)">
        <rect width="111" height="86" rx="8" fill="url(#paint0_linear_1_953)" fill-opacity="0.59" />
        <path opacity="0.41" fill-rule="evenodd" clip-rule="evenodd"
            d="M-18.2767 48.7024L-16.3017 47.3442C-14.1951 45.9861 -10.1134 43.2698 -6.1634 45.307C-2.08173 47.3442 1.99993 54.1349 6.0816 55.493C10.0316 56.8512 14.1133 52.7768 18.1949 50.7396C22.2766 48.7024 26.2266 48.7024 30.3083 51.4186C34.3899 54.1349 38.4716 59.5675 42.5533 60.2465C46.5033 60.9256 50.5849 56.8512 54.6666 56.1721C58.7483 55.493 62.6983 58.2093 66.7799 58.2093C70.8616 58.2093 74.9433 55.493 78.8933 49.3814C82.9749 43.2698 87.0566 33.7629 91.1383 29.0094C95.2199 24.2559 99.1699 24.2559 103.252 26.2931C107.333 28.3303 111.415 32.4047 115.365 36.4791C119.447 40.5536 123.528 44.628 127.61 44.628C131.56 44.628 135.642 40.5536 137.748 38.5163L139.723 36.4791V91H137.748C135.642 91 131.56 91 127.61 91C123.528 91 119.447 91 115.365 91C111.415 91 107.333 91 103.252 91C99.1699 91 95.2199 91 91.1383 91C87.0566 91 82.9749 91 78.8933 91C74.9433 91 70.8616 91 66.7799 91C62.6983 91 58.7483 91 54.6666 91C50.5849 91 46.5033 91 42.5533 91C38.4716 91 34.3899 91 30.3083 91C26.2266 91 22.2766 91 18.1949 91C14.1133 91 10.0316 91 6.0816 91C1.99993 91 -2.08173 91 -6.1634 91C-10.1134 91 -14.1951 91 -16.3017 91H-18.2767V48.7024Z"
            fill="url(#paint1_linear_1_953)" />
        <path opacity="0.41" fill-rule="evenodd" clip-rule="evenodd"
            d="M-16.6882 25.6995L-14.5704 24.577C-12.3219 23.4695 -7.95549 21.2395 -4.26532 23.7164C-0.444349 26.2085 2.83122 33.4227 6.7301 35.2402C10.4982 37.0425 15.0204 33.4633 19.3088 31.9079C23.5973 30.3525 27.5212 30.8057 31.2643 33.9723C35.0073 37.139 38.4387 43.004 42.4155 44.1469C46.2615 45.2747 50.7837 41.6955 54.9163 41.4892C59.0489 41.283 62.6612 44.4345 66.7159 44.9028C70.7706 45.3711 75.137 43.1411 79.7621 37.5231C84.5181 31.9202 89.6636 22.9443 94.2637 18.6905C98.8638 14.4368 102.788 14.89 106.609 17.382C110.43 19.8741 114.017 24.3899 117.473 28.8906C121.061 33.4065 124.648 37.9223 128.702 38.3906C132.626 38.8438 137.149 35.2646 139.475 33.4826L141.671 31.6854L135.415 103.846L133.453 103.62C131.36 103.378 127.306 102.91 123.382 102.456C119.327 101.988 115.272 101.52 111.218 101.051C107.294 100.598 103.239 100.13 99.1845 99.6615C95.1297 99.1932 91.2058 98.74 87.1511 98.2717C83.0964 97.8034 79.0417 97.3351 74.987 96.8667C71.0631 96.4135 67.0084 95.9452 62.9537 95.4769C58.8989 95.0086 54.975 94.5554 50.9203 94.0871C46.8656 93.6187 42.8109 93.1504 38.887 92.6972C34.8323 92.2289 30.7776 91.7606 26.7229 91.2923C22.6681 90.8239 18.7442 90.3707 14.6895 89.9024C10.6348 89.4341 6.58006 88.9658 2.65615 88.5126C-1.39857 88.0442 -5.45328 87.5759 -9.50799 87.1076C-13.4319 86.6544 -17.4866 86.1861 -19.5794 85.9444L-21.5413 85.7178L-16.6882 25.6995Z"
            fill="url(#paint2_linear_1_953)" />
        <path opacity="0.41" fill-rule="evenodd" clip-rule="evenodd"
            d="M-18.3601 64.7101L-16.4201 63.3024C-14.3484 61.8915 -10.3367 59.0729 -6.33646 61.0097C-2.20461 62.943 2.04738 69.6284 6.16207 70.8829C10.1451 72.1408 14.1225 67.9646 18.1514 65.8248C22.1803 63.6851 26.129 63.5853 30.278 66.1975C34.427 68.8098 38.6447 74.1374 42.7422 74.7131C46.7081 75.2922 50.6855 71.1159 54.7487 70.3339C58.8119 69.5519 62.8293 72.1674 66.9097 72.0643C70.99 71.9611 75.0017 69.1426 78.796 62.9331C82.7219 56.7203 86.562 47.1132 90.5222 42.2581C94.4824 37.403 98.4312 37.3031 102.563 39.2365C106.695 41.1699 110.878 45.1399 114.93 49.1131C119.113 53.0831 123.297 57.053 127.377 56.9499C131.326 56.85 135.303 52.6738 137.358 50.584L139.28 48.4975L140.406 93.0042L138.431 93.0541C136.325 93.1073 132.245 93.2105 128.296 93.3103C124.216 93.4135 120.136 93.5166 116.055 93.6198C112.106 93.7196 108.026 93.8228 103.946 93.9259C99.8653 94.0291 95.9166 94.1289 91.8362 94.2321C87.7558 94.3352 83.6755 94.4384 79.5951 94.5415C75.6464 94.6414 71.566 94.7445 67.4857 94.8477C63.4053 94.9508 59.4566 95.0507 55.3762 95.1538C51.2958 95.257 47.2155 95.3602 43.2667 95.46C39.1864 95.5631 35.106 95.6663 31.0256 95.7695C26.9453 95.8726 22.9965 95.9724 18.9162 96.0756C14.8358 96.1788 10.7555 96.2819 6.80672 96.3818C2.72635 96.4849 -1.35401 96.5881 -5.43437 96.6912C-9.38311 96.7911 -13.4635 96.8942 -15.5695 96.9475L-17.5438 96.9974L-18.3601 64.7101Z"
            fill="url(#paint3_linear_1_953)" />
    </g>
    <rect x="0.5" y="0.5" width="110" height="85" rx="7.5" stroke="#BFDBF7" stroke-opacity="0.2" />
    <defs>
        <linearGradient id="paint0_linear_1_953" x1="55.5" y1="0" x2="55.5" y2="86"
            gradientUnits="userSpaceOnUse">
            <stop stop-color="#F7AEF8" />
            <stop offset="1" stop-color="#350176" />
        </linearGradient>
        <linearGradient id="paint1_linear_1_953" x1="83.5713" y1="17.3636" x2="83.5713" y2="86"
            gradientUnits="userSpaceOnUse">
            <stop stop-color="#F7AEF8" />
            <stop offset="1" stop-color="#FDC5F5" stop-opacity="0.19" />
        </linearGradient>
        <linearGradient id="paint2_linear_1_953" x1="88.0828" y1="6.25348" x2="80.2077" y2="74.4365"
            gradientUnits="userSpaceOnUse">
            <stop stop-color="#F7AEF8" />
            <stop offset="1" stop-color="#FDC5F5" stop-opacity="0.19" />
        </linearGradient>
        <linearGradient id="paint3_linear_1_953" x1="82.6634" y1="30.8073" x2="84.398" y2="99.4217"
            gradientUnits="userSpaceOnUse">
            <stop stop-color="#F7AEF8" />
            <stop offset="1" stop-color="#FDC5F5" stop-opacity="0.19" />
        </linearGradient>
        <clipPath id="clip0_1_953">
            <rect width="111" height="86" rx="8" fill="white" />
        </clipPath>
    </defs>
</svg>
    