<svg width="111" height="86" viewBox="0 0 111 86" fill="none" xmlns="http://www.w3.org/2000/svg">
    <g clip-path="url(#clip0_1_927)">
        <rect width="111" height="86" rx="8" fill="url(#paint0_linear_1_927)" />
        <path fill-rule="evenodd" clip-rule="evenodd"
            d="M-46 -12L-42.6 -4.44444C-39.2 3.11111 -32.4 18.2222 -25.6 33.3333C-18.8 48.4444 -12 63.5555 -5.2 61.6667C1.6 59.7778 8.4 40.8889 15.2 37.1111C22 33.3333 28.8 44.6667 35.6 48.4444C42.4 52.2222 49.2 48.4444 56 37.1111C62.8 25.7778 69.6 6.88889 76.4 6.88889C83.2 6.88889 90 25.7778 96.8 25.7778C103.6 25.7778 110.4 6.88889 117.2 8.77778C124 10.6667 130.8 33.3333 137.6 33.3333C144.4 33.3333 151.2 10.6667 154.6 -0.666667L158 -12V90H154.6C151.2 90 144.4 90 137.6 90C130.8 90 124 90 117.2 90C110.4 90 103.6 90 96.8 90C90 90 83.2 90 76.4 90C69.6 90 62.8 90 56 90C49.2 90 42.4 90 35.6 90C28.8 90 22 90 15.2 90C8.4 90 1.6 90 -5.2 90C-12 90 -18.8 90 -25.6 90C-32.4 90 -39.2 90 -42.6 90H-46V-12Z"
            fill="url(#paint1_linear_1_927)" />
        <path fill-rule="evenodd" clip-rule="evenodd"
            d="M-46 28L-42.6 32.5926C-39.2 37.1852 -32.4 46.3704 -25.6 55.5556C-18.8 64.7407 -12 73.9259 -5.2 72.7778C1.6 71.6296 8.4 60.1481 15.2 57.8519C22 55.5556 28.8 62.4444 35.6 64.7407C42.4 67.037 49.2 64.7407 56 57.8519C62.8 50.963 69.6 39.4815 76.4 39.4815C83.2 39.4815 90 50.963 96.8 50.963C103.6 50.963 110.4 39.4815 117.2 40.6296C124 41.7778 130.8 55.5556 137.6 55.5556C144.4 55.5556 151.2 41.7778 154.6 34.8889L158 28V90H154.6C151.2 90 144.4 90 137.6 90C130.8 90 124 90 117.2 90C110.4 90 103.6 90 96.8 90C90 90 83.2 90 76.4 90C69.6 90 62.8 90 56 90C49.2 90 42.4 90 35.6 90C28.8 90 22 90 15.2 90C8.4 90 1.6 90 -5.2 90C-12 90 -18.8 90 -25.6 90C-32.4 90 -39.2 90 -42.6 90H-46V28Z"
            fill="url(#paint2_linear_1_927)" />
        <path fill-rule="evenodd" clip-rule="evenodd"
            d="M-46 52L-42.6 56.0741C-39.2 60.1481 -32.4 68.2963 -25.6 76.4444C-18.8 84.5926 -12 92.7407 -5.2 91.7222C1.6 90.7037 8.4 80.5185 15.2 78.4815C22 76.4444 28.8 82.5556 35.6 84.5926C42.4 86.6296 49.2 84.5926 56 78.4815C62.8 72.3704 69.6 62.1852 76.4 62.1852C83.2 62.1852 90 72.3704 96.8 72.3704C103.6 72.3704 110.4 62.1852 117.2 63.2037C124 64.2222 130.8 76.4444 137.6 76.4444C144.4 76.4444 151.2 64.2222 154.6 58.1111L158 52V107H154.6C151.2 107 144.4 107 137.6 107C130.8 107 124 107 117.2 107C110.4 107 103.6 107 96.8 107C90 107 83.2 107 76.4 107C69.6 107 62.8 107 56 107C49.2 107 42.4 107 35.6 107C28.8 107 22 107 15.2 107C8.4 107 1.6 107 -5.2 107C-12 107 -18.8 107 -25.6 107C-32.4 107 -39.2 107 -42.6 107H-46V52Z"
            fill="url(#paint3_linear_1_927)" />
    </g>
    <rect x="0.5" y="0.5" width="110" height="85" rx="7.5" stroke="#BFDBF7" stroke-opacity="0.2" />
    <defs>
        <linearGradient id="paint0_linear_1_927" x1="55.5" y1="0" x2="55.5" y2="86"
            gradientUnits="userSpaceOnUse">
            <stop stop-color="#9381FF" stop-opacity="0.14" />
            <stop offset="1" stop-color="#000812" />
        </linearGradient>
        <linearGradient id="paint1_linear_1_927" x1="85.5" y1="-31.4727" x2="85.5" y2="90"
            gradientUnits="userSpaceOnUse">
            <stop stop-color="#6659B9" />
            <stop offset="1" stop-color="#58485F" stop-opacity="0.19" />
        </linearGradient>
        <linearGradient id="paint2_linear_1_927" x1="85.5" y1="16.1636" x2="85.5" y2="90"
            gradientUnits="userSpaceOnUse">
            <stop stop-color="#6659B9" />
            <stop offset="1" stop-color="#58485F" stop-opacity="0.19" />
        </linearGradient>
        <linearGradient id="paint3_linear_1_927" x1="85.5" y1="41.5" x2="85.5" y2="107"
            gradientUnits="userSpaceOnUse">
            <stop stop-color="#6659B9" />
            <stop offset="1" stop-color="#58485F" stop-opacity="0.19" />
        </linearGradient>
        <clipPath id="clip0_1_927">
            <rect width="111" height="86" rx="8" fill="white" />
        </clipPath>
    </defs>
</svg>
    